<svg xmlns="http://www.w3.org/2000/svg" viewBox="-50 -50 100 100">
    <path d="M 86.426 19.922 l -0.008 -0.055 l -14.65 -1.729 l 0.02 -0.027 l -0.146 0.013 l -0.578 -0.068 c -0.299 -0.206 -4.877 -3.384 -9.436 -6.475 c -8.879 -6.02 -9.631 -6.274 -9.768 -6.188 L 30.626 9.08 l -0.023 0.004 L 16.935 23.713 l 0.107 0.1 L 30.676 9.219 L 51.79 5.553 c -0.318 1.374 -0.738 11.918 -0.805 13.646 l -19.88 -9.718 l 2.786 20.308 l -14.198 -2.821 l -0.444 -1.741 l -1.204 1.413 l -0.33 -0.065 L 5.9 23.672 L 4.462 42.788 l 1.031 -1.21 c 2.161 0.954 13.611 6.169 20.098 9.128 l 0.225 0.883 l 0.142 -0.037 l -0.196 -0.768 c 0.032 0.015 0.064 0.029 0.096 0.043 l 0.067 0.031 l 9.826 -22.793 l 16.127 -7.099 L 62.61 31.342 l 8.361 14.501 l 0.035 0.058 l 18.262 -8.421 l 0.051 -0.023 L 86.426 19.922 z M 19.177 25.535 l 0.357 1.401 l -1.327 -0.265 L 19.177 25.535 z M 5.452 41.401 c -0.318 -0.138 -0.327 -0.126 -0.354 -0.086 l 0.009 0.094 l 0.051 -0.053 l 0.004 0.003 l -0.021 0.068 c 0.018 0.005 0.091 0.036 0.213 0.089 L 4.64 42.354 l 1.394 -18.499 l 11.649 2.862 l 0.253 0.05 L 5.452 41.401 z M 15.562 45.978 c -2.59 -1.179 -5.18 -2.355 -7.124 -3.235 c -0.973 -0.439 -1.784 -0.805 -2.353 -1.06 c -0.206 -0.093 -0.367 -0.164 -0.494 -0.221 l 12.507 -14.663 l 1.475 0.293 l 5.972 23.434 C 24.271 49.944 19.918 47.959 15.562 45.978 z M 51.909 20.795 l -16.244 7.148 l -0.025 0.011 l -9.79 22.71 c -0.034 -0.016 -0.078 -0.035 -0.135 -0.061 l -5.982 -23.479 l 14.33 2.848 l -2.776 -20.24 L 51.02 19.38 l 0.102 0.048 l 0.004 -0.111 c 0.203 -5.287 0.586 -13.237 0.814 -13.791 c 0.773 0.117 11.771 7.602 19.051 12.657 l -18.459 1.673 l -0.568 -1.682 l -0.139 0.047 l 0.605 1.79 l 19.062 -1.728 l -8.836 12.901 L 51.944 20.829 L 51.909 20.795 z M 71.065 45.713 l -8.311 -14.414 l 8.291 -12.105 l 7.977 8.132 l -8.051 14.047 l 0.127 0.071 l 8.029 -14.009 l 9.656 10.03 l 0.104 -0.102 l -9.684 -10.061 v -0.001 l -8.074 -8.23 l 0.547 -0.797 l 14.615 1.725 l 2.863 17.372 L 71.065 45.713 z" style="stroke: rgb(198,198,198); stroke-width: 1; stroke-dasharray: none; stroke-linecap: butt; stroke-linejoin: miter; stroke-miterlimit: 10; fill: rgb(54,169,225); fill-rule: nonzero; opacity: 1;" transform="translate(0.28 -10.93) translate(-46.8905, -28.48532829825834)  matrix(1 0 0 1 0 0) " stroke-linecap="round" />
    <circle cx="0" cy="0" r="5.966" style="stroke: none; stroke-width: 1; stroke-dasharray: none; stroke-linecap: butt; stroke-linejoin: miter; stroke-miterlimit: 10; fill: rgb(208,34,62); fill-rule: nonzero; opacity: 1;" transform="translate(-40.65 3.16)  matrix(1 0 0 1 0 0) "/>
    <circle cx="0" cy="0" r="6.572" style="stroke: none; stroke-width: 1; stroke-dasharray: none; stroke-linecap: butt; stroke-linejoin: miter; stroke-miterlimit: 10; fill: rgb(82,36,98); fill-rule: nonzero; opacity: 1;" transform="translate(-11.63 -9.39)  matrix(1 0 0 1 0 0) "/>
    <circle cx="0" cy="0" r="4.803" style="stroke: none; stroke-width: 1; stroke-dasharray: none; stroke-linecap: butt; stroke-linejoin: miter; stroke-miterlimit: 10; fill: rgb(0,176,197); fill-rule: nonzero; opacity: 1;" transform="translate(4.5 -34.61)  matrix(1 0 0 1 0 0) "/>
    <circle cx="0" cy="0" r="3.994" style="stroke: none; stroke-width: 1; stroke-dasharray: none; stroke-linecap: butt; stroke-linejoin: miter; stroke-miterlimit: 10; fill: rgb(61,120,55); fill-rule: nonzero; opacity: 1;" transform="translate(16.05 -8.12)  matrix(1 0 0 1 0 0) "/>
    <circle cx="0" cy="0" r="5.511" style="stroke: none; stroke-width: 1; stroke-dasharray: none; stroke-linecap: butt; stroke-linejoin: miter; stroke-miterlimit: 10; fill: rgb(210,60,22); fill-rule: nonzero; opacity: 1;" transform="translate(24.42 4.52)  matrix(1 0 0 1 0 0) "/>
    <circle cx="0" cy="0" r="3.994" style="stroke: none; stroke-width: 1; stroke-dasharray: none; stroke-linecap: butt; stroke-linejoin: miter; stroke-miterlimit: 10; fill: rgb(231,40,90); fill-rule: nonzero; opacity: 1;" transform="translate(42.62 -2.01)  matrix(1 0 0 1 0 0) "/>
    <circle cx="0" cy="0" r="2.756" style="stroke: none; stroke-width: 1; stroke-dasharray: none; stroke-linecap: butt; stroke-linejoin: miter; stroke-miterlimit: 10; fill: rgb(82,180,222); fill-rule: nonzero; opacity: 1;" transform="translate(24.42 -21.29)  matrix(1 0 0 1 0 0) "/>
    <circle cx="0" cy="0" r="4.5" style="stroke: none; stroke-width: 1; stroke-dasharray: none; stroke-linecap: butt; stroke-linejoin: miter; stroke-miterlimit: 10; fill: rgb(250,187,0); fill-rule: nonzero; opacity: 1;" transform="translate(-28.06 -14.03)  matrix(1 0 0 1 0 0) "/>
    <circle cx="0" cy="0" r="2.78" style="stroke: none; stroke-width: 1; stroke-dasharray: none; stroke-linecap: butt; stroke-linejoin: miter; stroke-miterlimit: 10; fill: rgb(208,59,23); fill-rule: nonzero; opacity: 1;" transform="translate(-15.42 -30.26)  matrix(1 0 0 1 0 0) "/>
    <circle cx="0" cy="0" r="5.448" style="stroke: none; stroke-width: 1; stroke-dasharray: none; stroke-linecap: butt; stroke-linejoin: miter; stroke-miterlimit: 10; fill: rgb(156,179,32); fill-rule: nonzero; opacity: 1;" transform="translate(4.44 -19.48)  matrix(1 0 0 1 0 0) "/>
    <circle cx="0" cy="0" r="3.843" style="stroke: none; stroke-width: 1; stroke-dasharray: none; stroke-linecap: butt; stroke-linejoin: miter; stroke-miterlimit: 10; fill: rgb(136,54,140); fill-rule: nonzero; opacity: 1;" transform="translate(-20.73 11.34)  matrix(1 0 0 1 0 0) "/>
    <circle cx="0" cy="0" r="2.881" style="stroke: none; stroke-width: 1; stroke-dasharray: none; stroke-linecap: butt; stroke-linejoin: miter; stroke-miterlimit: 10; fill: rgb(235,86,135); fill-rule: nonzero; opacity: 1;" transform="translate(-40.65 -15.65)  matrix(1 0 0 1 0 0) "/>
    <circle cx="0" cy="0" r="2.882" style="stroke: none; stroke-width: 1; stroke-dasharray: none; stroke-linecap: butt; stroke-linejoin: miter; stroke-miterlimit: 10; fill: rgb(253,193,0); fill-rule: nonzero; opacity: 1;" transform="translate(39.74 -19.48)  matrix(1 0 0 1 0 0) "/>
    <circle cx="0" cy="0" r="2.567" style="stroke: none; stroke-width: 1; stroke-dasharray: none; stroke-linecap: butt; stroke-linejoin: miter; stroke-miterlimit: 10; fill: rgb(125,33,129); fill-rule: nonzero; opacity: 1;" transform="translate(32.5 -12.1)  matrix(1 0 0 1 0 0) "/>
    <polygon points="52.96,78.83 48.88,78.83 48.88,45.77 54.42,36.47 58.12,38.19 52.96,46.67 " style="stroke: none; stroke-width: 1; stroke-dasharray: none; stroke-linecap: butt; stroke-linejoin: miter; stroke-miterlimit: 10; fill: rgb(210,60,22); fill-rule: nonzero; opacity: 1;" transform="translate(6.89 18.23) translate(-53.5015, -57.649499999999996)   matrix(1 0 0 1 0 0) "/>
    <polygon points="47.13,78.83 43.06,78.83 43.06,45.97 38.88,40.13 42.2,37.76 47.14,44.66 " style="stroke: none; stroke-width: 1; stroke-dasharray: none; stroke-linecap: butt; stroke-linejoin: miter; stroke-miterlimit: 10; fill: rgb(82,180,222); fill-rule: nonzero; opacity: 1;" transform="translate(-3.6 18.88) translate(-43.012, -58.2925)   matrix(1 0 0 1 0 0) "/>
    <polygon points="41.05,78.83 36.97,78.83 36.97,54.44 33.43,51.59 36.01,48.43 41.05,52.5 " style="stroke: none; stroke-width: 1; stroke-dasharray: none; stroke-linecap: butt; stroke-linejoin: miter; stroke-miterlimit: 10; fill: rgb(156,179,32); fill-rule: nonzero; opacity: 1;" transform="translate(-9.37 24.21) translate(-37.2415, -63.62949999999999)   matrix(1 0 0 1 0 0) "/>
    <polygon points="58.69,78.83 54.62,78.83 54.62,59.39 63.08,50.53 66.03,53.35 58.69,61.03 " style="stroke: none; stroke-width: 1; stroke-dasharray: none; stroke-linecap: butt; stroke-linejoin: miter; stroke-miterlimit: 10; fill: rgb(125,33,129); fill-rule: nonzero; opacity: 1;" transform="translate(13.71 25.27) translate(-60.322, -64.6815)   matrix(1 0 0 1 0 0) "/>
</svg>
